<svg width="47" height="42" viewBox="0 0 47 42" fill="none" xmlns="http://www.w3.org/2000/svg">
<path d="M0 4C0 1.79086 1.79086 0 4 0H43C45.2091 0 47 1.79086 47 4V38C47 40.2091 45.2091 42 43 42H4C1.79086 42 0 40.2091 0 38V4Z" fill="#95C9D1" fill-opacity="0.1"/>
<path d="M23 33C29.6274 33 35 27.6274 35 21C35 14.3726 29.6274 9 23 9C16.3726 9 11 14.3726 11 21C11 27.6274 16.3726 33 23 33Z" stroke="#D4D4D4"/>
<path d="M22.56 23.8775V21.395H20.28C19.9901 21.395 19.755 21.1599 19.755 20.87C19.755 20.58 19.9901 20.345 20.28 20.345H22.56V17.8625C22.56 17.5601 22.8051 17.315 23.1075 17.315C23.4099 17.315 23.655 17.5601 23.655 17.8625V20.345H25.935C26.225 20.345 26.46 20.58 26.46 20.87C26.46 21.1599 26.225 21.395 25.935 21.395H23.655V23.8775C23.655 24.1799 23.4099 24.425 23.1075 24.425C22.8051 24.425 22.56 24.1799 22.56 23.8775Z" fill="black"/>
</svg>
