<svg width="47" height="42" viewBox="0 0 47 42" fill="none" xmlns="http://www.w3.org/2000/svg">
<path d="M0 4C0 1.79086 1.79086 0 4 0H43C45.2091 0 47 1.79086 47 4V38C47 40.2091 45.2091 42 43 42H4C1.79086 42 0 40.2091 0 38V4Z" fill="#95C9D1" fill-opacity="0.1"/>
<mask id="mask0" mask-type="alpha" maskUnits="userSpaceOnUse" x="11" y="9" width="24" height="24">
<path d="M23 33C29.6274 33 35 27.6274 35 21C35 14.3726 29.6274 9 23 9C16.3726 9 11 14.3726 11 21C11 27.6274 16.3726 33 23 33Z" fill="white"/>
</mask>
<g mask="url(#mask0)">
<path d="M23 33C29.6274 33 35 27.6274 35 21C35 14.3726 29.6274 9 23 9C16.3726 9 11 14.3726 11 21C11 27.6274 16.3726 33 23 33Z" fill="black"/>
<path d="M23.1633 16V26" stroke="white" stroke-width="1.4" stroke-linecap="round"/>
<path d="M28 21.1633H18" stroke="white" stroke-width="1.4" stroke-linecap="round"/>
</g>
</svg>
