<svg width="163" height="58" viewBox="0 0 163 58" fill="none" xmlns="http://www.w3.org/2000/svg">
<rect width="163" height="58" rx="4" fill="black"/>
<path d="M47.816 28.256C48.2213 28.32 48.5893 28.4853 48.92 28.752C49.2613 29.0187 49.528 29.3493 49.72 29.744C49.9227 30.1387 50.024 30.56 50.024 31.008C50.024 31.5733 49.88 32.0853 49.592 32.544C49.304 32.992 48.8827 33.3493 48.328 33.616C47.784 33.872 47.1387 34 46.392 34H42.232V22.848H46.232C46.9893 22.848 47.6347 22.976 48.168 23.232C48.7013 23.4773 49.1013 23.8133 49.368 24.24C49.6347 24.6667 49.768 25.1467 49.768 25.68C49.768 26.3413 49.5867 26.8907 49.224 27.328C48.872 27.7547 48.4027 28.064 47.816 28.256ZM43.688 27.664H46.136C46.8187 27.664 47.3467 27.504 47.72 27.184C48.0933 26.864 48.28 26.4213 48.28 25.856C48.28 25.2907 48.0933 24.848 47.72 24.528C47.3467 24.208 46.808 24.048 46.104 24.048H43.688V27.664ZM46.264 32.8C46.9893 32.8 47.5547 32.6293 47.96 32.288C48.3653 31.9467 48.568 31.472 48.568 30.864C48.568 30.2453 48.3547 29.76 47.928 29.408C47.5013 29.0453 46.9307 28.864 46.216 28.864H43.688V32.8H46.264ZM55.8685 34.144C55.0472 34.144 54.3005 33.9573 53.6285 33.584C52.9672 33.2107 52.4445 32.6827 52.0605 32C51.6872 31.3067 51.5005 30.5067 51.5005 29.6C51.5005 28.704 51.6925 27.9147 52.0765 27.232C52.4712 26.5387 53.0045 26.0107 53.6765 25.648C54.3485 25.2747 55.1005 25.088 55.9325 25.088C56.7645 25.088 57.5165 25.2747 58.1885 25.648C58.8605 26.0107 59.3885 26.5333 59.7725 27.216C60.1672 27.8987 60.3645 28.6933 60.3645 29.6C60.3645 30.5067 60.1618 31.3067 59.7565 32C59.3618 32.6827 58.8232 33.2107 58.1405 33.584C57.4578 33.9573 56.7005 34.144 55.8685 34.144ZM55.8685 32.864C56.3912 32.864 56.8818 32.7413 57.3405 32.496C57.7992 32.2507 58.1672 31.8827 58.4445 31.392C58.7325 30.9013 58.8765 30.304 58.8765 29.6C58.8765 28.896 58.7378 28.2987 58.4605 27.808C58.1832 27.3173 57.8205 26.9547 57.3725 26.72C56.9245 26.4747 56.4392 26.352 55.9165 26.352C55.3832 26.352 54.8925 26.4747 54.4445 26.72C54.0072 26.9547 53.6552 27.3173 53.3885 27.808C53.1218 28.2987 52.9885 28.896 52.9885 29.6C52.9885 30.3147 53.1165 30.9173 53.3725 31.408C53.6392 31.8987 53.9912 32.2667 54.4285 32.512C54.8658 32.7467 55.3458 32.864 55.8685 32.864ZM66.1029 34.144C65.2815 34.144 64.5349 33.9573 63.8629 33.584C63.2015 33.2107 62.6789 32.6827 62.2949 32C61.9215 31.3067 61.7349 30.5067 61.7349 29.6C61.7349 28.704 61.9269 27.9147 62.3109 27.232C62.7055 26.5387 63.2389 26.0107 63.9109 25.648C64.5829 25.2747 65.3349 25.088 66.1669 25.088C66.9989 25.088 67.7509 25.2747 68.4229 25.648C69.0949 26.0107 69.6229 26.5333 70.0069 27.216C70.4015 27.8987 70.5989 28.6933 70.5989 29.6C70.5989 30.5067 70.3962 31.3067 69.9909 32C69.5962 32.6827 69.0575 33.2107 68.3749 33.584C67.6922 33.9573 66.9349 34.144 66.1029 34.144ZM66.1029 32.864C66.6255 32.864 67.1162 32.7413 67.5749 32.496C68.0335 32.2507 68.4015 31.8827 68.6789 31.392C68.9669 30.9013 69.1109 30.304 69.1109 29.6C69.1109 28.896 68.9722 28.2987 68.6949 27.808C68.4175 27.3173 68.0549 26.9547 67.6069 26.72C67.1589 26.4747 66.6735 26.352 66.1509 26.352C65.6175 26.352 65.1269 26.4747 64.6789 26.72C64.2415 26.9547 63.8895 27.3173 63.6229 27.808C63.3562 28.2987 63.2229 28.896 63.2229 29.6C63.2229 30.3147 63.3509 30.9173 63.6069 31.408C63.8735 31.8987 64.2255 32.2667 64.6629 32.512C65.1002 32.7467 65.5802 32.864 66.1029 32.864ZM77.4093 34L73.9693 30.128V34H72.5133V22.16H73.9693V29.12L77.3453 25.232H79.3773L75.2493 29.6L79.3933 34H77.4093ZM91.8773 22.848V24.032H88.8373V34H87.3813V24.032H84.3253V22.848H91.8773ZM94.4215 23.808C94.1442 23.808 93.9095 23.712 93.7175 23.52C93.5255 23.328 93.4295 23.0933 93.4295 22.816C93.4295 22.5387 93.5255 22.304 93.7175 22.112C93.9095 21.92 94.1442 21.824 94.4215 21.824C94.6882 21.824 94.9122 21.92 95.0935 22.112C95.2855 22.304 95.3815 22.5387 95.3815 22.816C95.3815 23.0933 95.2855 23.328 95.0935 23.52C94.9122 23.712 94.6882 23.808 94.4215 23.808ZM95.1255 25.232V34H93.6695V25.232H95.1255ZM108.151 25.072C108.834 25.072 109.442 25.216 109.975 25.504C110.508 25.7813 110.93 26.2027 111.239 26.768C111.548 27.3333 111.703 28.0213 111.703 28.832V34H110.263V29.04C110.263 28.1653 110.044 27.4987 109.607 27.04C109.18 26.5707 108.599 26.336 107.863 26.336C107.106 26.336 106.503 26.5813 106.055 27.072C105.607 27.552 105.383 28.2507 105.383 29.168V34H103.943V29.04C103.943 28.1653 103.724 27.4987 103.287 27.04C102.86 26.5707 102.279 26.336 101.543 26.336C100.786 26.336 100.183 26.5813 99.735 27.072C99.287 27.552 99.063 28.2507 99.063 29.168V34H97.607V25.232H99.063V26.496C99.351 26.0373 99.735 25.6853 100.215 25.44C100.706 25.1947 101.244 25.072 101.831 25.072C102.567 25.072 103.218 25.2373 103.783 25.568C104.348 25.8987 104.77 26.384 105.047 27.024C105.292 26.4053 105.698 25.9253 106.263 25.584C106.828 25.2427 107.458 25.072 108.151 25.072ZM122.091 29.28C122.091 29.5573 122.075 29.8507 122.043 30.16H115.035C115.089 31.024 115.382 31.7013 115.915 32.192C116.459 32.672 117.115 32.912 117.883 32.912C118.513 32.912 119.035 32.768 119.451 32.48C119.878 32.1813 120.177 31.7867 120.347 31.296H121.915C121.681 32.1387 121.211 32.8267 120.507 33.36C119.803 33.8827 118.929 34.144 117.883 34.144C117.051 34.144 116.305 33.9573 115.643 33.584C114.993 33.2107 114.481 32.6827 114.107 32C113.734 31.3067 113.547 30.5067 113.547 29.6C113.547 28.6933 113.729 27.8987 114.091 27.216C114.454 26.5333 114.961 26.0107 115.611 25.648C116.273 25.2747 117.03 25.088 117.883 25.088C118.715 25.088 119.451 25.2693 120.091 25.632C120.731 25.9947 121.222 26.496 121.563 27.136C121.915 27.7653 122.091 28.48 122.091 29.28ZM120.587 28.976C120.587 28.4213 120.465 27.9467 120.219 27.552C119.974 27.1467 119.638 26.8427 119.211 26.64C118.795 26.4267 118.331 26.32 117.819 26.32C117.083 26.32 116.454 26.5547 115.931 27.024C115.419 27.4933 115.126 28.144 115.051 28.976H120.587Z" fill="white"/>
</svg>
