<svg width="47" height="42" viewBox="0 0 47 42" fill="none" xmlns="http://www.w3.org/2000/svg">
<path d="M0 4C0 1.79086 1.79086 0 4 0H43C45.2091 0 47 1.79086 47 4V38C47 40.2091 45.2091 42 43 42H4C1.79086 42 0 40.2091 0 38V4Z" fill="#95C9D1" fill-opacity="0.1"/>
<path fill-rule="evenodd" clip-rule="evenodd" d="M27.8725 23.0354C27.8725 22.3444 27.3115 21.7834 26.6205 21.7834C25.9285 21.7834 25.3675 22.3444 25.3675 23.0354C25.3675 23.7274 25.9285 24.2884 26.6205 24.2884C27.3115 24.2884 27.8725 23.7274 27.8725 23.0354Z" fill="url(#paint0_linear)"/>
<path fill-rule="evenodd" clip-rule="evenodd" d="M28.3594 27.6213H18.7884C17.8004 27.6213 17.0004 26.8203 17.0004 25.8323V18.4503H30.1474V25.8323C30.1474 26.8203 29.3474 27.6213 28.3594 27.6213Z" stroke="url(#paint1_linear)" stroke-linecap="round" stroke-linejoin="round"/>
<path d="M17 18.45V17.099C17 15.94 17.94 15 19.099 15H26.119V18.45" stroke="url(#paint2_linear)" stroke-linecap="round" stroke-linejoin="round"/>
<defs>
<linearGradient id="paint0_linear" x1="25.3675" y1="21.1627" x2="27.8725" y2="24.2884" gradientUnits="userSpaceOnUse">
<stop stop-color="#4E9D92"/>
<stop offset="1" stop-color="#0B6458"/>
</linearGradient>
<linearGradient id="paint1_linear" x1="17.0004" y1="19.6987" x2="27.238" y2="28.6097" gradientUnits="userSpaceOnUse">
<stop stop-color="#4E9D92"/>
<stop offset="1" stop-color="#0B6458"/>
</linearGradient>
<linearGradient id="paint2_linear" x1="17" y1="16.3557" x2="24.695" y2="19.9883" gradientUnits="userSpaceOnUse">
<stop stop-color="#4E9D92"/>
<stop offset="1" stop-color="#0B6458"/>
</linearGradient>
</defs>
</svg>
