<svg width="47" height="42" viewBox="0 0 47 42" fill="none" xmlns="http://www.w3.org/2000/svg">
<path d="M0 4C0 1.79086 1.79086 0 4 0H43C45.2091 0 47 1.79086 47 4V38C47 40.2091 45.2091 42 43 42H4C1.79086 42 0 40.2091 0 38V4Z" fill="#95C9D1" fill-opacity="0.1"/>
<path d="M16.5 18.5H31.5" stroke="black" stroke-linecap="round" stroke-linejoin="round"/>
<path fill-rule="evenodd" clip-rule="evenodd" d="M30.5 15.5H17.5C16.948 15.5 16.5 15.948 16.5 16.5V27.5C16.5 28.052 16.948 28.5 17.5 28.5H30.5C31.052 28.5 31.5 28.052 31.5 27.5V16.5C31.5 15.948 31.052 15.5 30.5 15.5Z" stroke="black" stroke-linecap="round" stroke-linejoin="round"/>
<path d="M20.5 13.5V15.5" stroke="black" stroke-linecap="round" stroke-linejoin="round"/>
<path d="M27.5 13.5V15.5" stroke="black" stroke-linecap="round" stroke-linejoin="round"/>
</svg>
