<svg width="163" height="58" viewBox="0 0 163 58" fill="none" xmlns="http://www.w3.org/2000/svg">
<rect width="163" height="58" rx="4" fill="#0B6458"/>
<path d="M44.68 27.08C44.3707 26.4293 43.9227 25.928 43.336 25.576C42.7493 25.2133 42.0667 25.032 41.288 25.032C40.5093 25.032 39.8053 25.2133 39.176 25.576C38.5573 25.928 38.0667 26.44 37.704 27.112C37.352 27.7733 37.176 28.5413 37.176 29.416C37.176 30.2907 37.352 31.0587 37.704 31.72C38.0667 32.3813 38.5573 32.8933 39.176 33.256C39.8053 33.608 40.5093 33.784 41.288 33.784C42.376 33.784 43.272 33.4587 43.976 32.808C44.68 32.1573 45.0907 31.2773 45.208 30.168H40.76V28.984H46.76V30.104C46.6747 31.0213 46.3867 31.864 45.896 32.632C45.4053 33.3893 44.76 33.992 43.96 34.44C43.16 34.8773 42.2693 35.096 41.288 35.096C40.2533 35.096 39.3093 34.856 38.456 34.376C37.6027 33.8853 36.9253 33.208 36.424 32.344C35.9333 31.48 35.688 30.504 35.688 29.416C35.688 28.328 35.9333 27.352 36.424 26.488C36.9253 25.6133 37.6027 24.936 38.456 24.456C39.3093 23.9653 40.2533 23.72 41.288 23.72C42.472 23.72 43.5173 24.0133 44.424 24.6C45.3413 25.1867 46.008 26.0133 46.424 27.08H44.68ZM56.6851 30.28C56.6851 30.5573 56.6691 30.8507 56.6371 31.16H49.6291C49.6825 32.024 49.9758 32.7013 50.5091 33.192C51.0531 33.672 51.7091 33.912 52.4771 33.912C53.1065 33.912 53.6291 33.768 54.0451 33.48C54.4718 33.1813 54.7705 32.7867 54.9411 32.296H56.5091C56.2745 33.1387 55.8051 33.8267 55.1011 34.36C54.3971 34.8827 53.5225 35.144 52.4771 35.144C51.6451 35.144 50.8985 34.9573 50.2371 34.584C49.5865 34.2107 49.0745 33.6827 48.7011 33C48.3278 32.3067 48.1411 31.5067 48.1411 30.6C48.1411 29.6933 48.3225 28.8987 48.6851 28.216C49.0478 27.5333 49.5545 27.0107 50.2051 26.648C50.8665 26.2747 51.6238 26.088 52.4771 26.088C53.3091 26.088 54.0451 26.2693 54.6851 26.632C55.3251 26.9947 55.8158 27.496 56.1571 28.136C56.5091 28.7653 56.6851 29.48 56.6851 30.28ZM55.1811 29.976C55.1811 29.4213 55.0585 28.9467 54.8131 28.552C54.5678 28.1467 54.2318 27.8427 53.8051 27.64C53.3891 27.4267 52.9251 27.32 52.4131 27.32C51.6771 27.32 51.0478 27.5547 50.5251 28.024C50.0131 28.4933 49.7198 29.144 49.6451 29.976H55.1811ZM60.383 27.432V32.6C60.383 33.0267 60.4737 33.3307 60.655 33.512C60.8363 33.6827 61.151 33.768 61.599 33.768H62.671V35H61.359C60.5483 35 59.9403 34.8133 59.535 34.44C59.1297 34.0667 58.927 33.4533 58.927 32.6V27.432H57.791V26.232H58.927V24.024H60.383V26.232H62.671V27.432H60.383ZM72.2368 35.112C71.5008 35.112 70.8394 34.984 70.2528 34.728C69.6768 34.4613 69.2234 34.0987 68.8928 33.64C68.5621 33.1707 68.3914 32.632 68.3808 32.024H69.9328C69.9861 32.5467 70.1994 32.9893 70.5728 33.352C70.9568 33.704 71.5114 33.88 72.2368 33.88C72.9301 33.88 73.4741 33.7093 73.8688 33.368C74.2741 33.016 74.4768 32.568 74.4768 32.024C74.4768 31.5973 74.3594 31.2507 74.1248 30.984C73.8901 30.7173 73.5968 30.5147 73.2448 30.376C72.8928 30.2373 72.4181 30.088 71.8208 29.928C71.0848 29.736 70.4928 29.544 70.0448 29.352C69.6074 29.16 69.2288 28.8613 68.9088 28.456C68.5994 28.04 68.4448 27.4853 68.4448 26.792C68.4448 26.184 68.5994 25.6453 68.9088 25.176C69.2181 24.7067 69.6501 24.344 70.2048 24.088C70.7701 23.832 71.4154 23.704 72.1408 23.704C73.1861 23.704 74.0394 23.9653 74.7008 24.488C75.3728 25.0107 75.7514 25.704 75.8368 26.568H74.2368C74.1834 26.1413 73.9594 25.768 73.5648 25.448C73.1701 25.1173 72.6474 24.952 71.9968 24.952C71.3888 24.952 70.8928 25.112 70.5088 25.432C70.1248 25.7413 69.9328 26.1787 69.9328 26.744C69.9328 27.1493 70.0448 27.48 70.2688 27.736C70.5034 27.992 70.7861 28.1893 71.1168 28.328C71.4581 28.456 71.9328 28.6053 72.5408 28.776C73.2768 28.9787 73.8688 29.1813 74.3168 29.384C74.7648 29.576 75.1488 29.88 75.4688 30.296C75.7888 30.7013 75.9488 31.256 75.9488 31.96C75.9488 32.504 75.8048 33.016 75.5168 33.496C75.2288 33.976 74.8021 34.3653 74.2368 34.664C73.6714 34.9627 73.0048 35.112 72.2368 35.112ZM79.8674 27.432V32.6C79.8674 33.0267 79.958 33.3307 80.1394 33.512C80.3207 33.6827 80.6354 33.768 81.0834 33.768H82.1554V35H80.8434C80.0327 35 79.4247 34.8133 79.0194 34.44C78.614 34.0667 78.4114 33.4533 78.4114 32.6V27.432H77.2754V26.232H78.4114V24.024H79.8674V26.232H82.1554V27.432H79.8674ZM83.3755 30.584C83.3755 29.688 83.5568 28.904 83.9195 28.232C84.2822 27.5493 84.7782 27.0213 85.4075 26.648C86.0475 26.2747 86.7568 26.088 87.5355 26.088C88.3035 26.088 88.9702 26.2533 89.5355 26.584C90.1008 26.9147 90.5222 27.3307 90.7995 27.832V26.232H92.2715V35H90.7995V33.368C90.5115 33.88 90.0795 34.3067 89.5035 34.648C88.9382 34.9787 88.2768 35.144 87.5195 35.144C86.7408 35.144 86.0368 34.952 85.4075 34.568C84.7782 34.184 84.2822 33.6453 83.9195 32.952C83.5568 32.2587 83.3755 31.4693 83.3755 30.584ZM90.7995 30.6C90.7995 29.9387 90.6662 29.3627 90.3995 28.872C90.1328 28.3813 89.7702 28.008 89.3115 27.752C88.8635 27.4853 88.3675 27.352 87.8235 27.352C87.2795 27.352 86.7835 27.48 86.3355 27.736C85.8875 27.992 85.5302 28.3653 85.2635 28.856C84.9968 29.3467 84.8635 29.9227 84.8635 30.584C84.8635 31.256 84.9968 31.8427 85.2635 32.344C85.5302 32.8347 85.8875 33.2133 86.3355 33.48C86.7835 33.736 87.2795 33.864 87.8235 33.864C88.3675 33.864 88.8635 33.736 89.3115 33.48C89.7702 33.2133 90.1328 32.8347 90.3995 32.344C90.6662 31.8427 90.7995 31.2613 90.7995 30.6ZM96.188 27.656C96.444 27.1547 96.8067 26.7653 97.276 26.488C97.756 26.2107 98.3373 26.072 99.02 26.072V27.576H98.636C97.004 27.576 96.188 28.4613 96.188 30.232V35H94.732V26.232H96.188V27.656ZM102.477 27.432V32.6C102.477 33.0267 102.567 33.3307 102.749 33.512C102.93 33.6827 103.245 33.768 103.693 33.768H104.765V35H103.453C102.642 35 102.034 34.8133 101.629 34.44C101.223 34.0667 101.021 33.4533 101.021 32.6V27.432H99.8848V26.232H101.021V24.024H102.477V26.232H104.765V27.432H102.477ZM114.529 30.28C114.529 30.5573 114.513 30.8507 114.481 31.16H107.473C107.526 32.024 107.82 32.7013 108.353 33.192C108.897 33.672 109.553 33.912 110.321 33.912C110.95 33.912 111.473 33.768 111.889 33.48C112.316 33.1813 112.614 32.7867 112.785 32.296H114.353C114.118 33.1387 113.649 33.8267 112.945 34.36C112.241 34.8827 111.366 35.144 110.321 35.144C109.489 35.144 108.742 34.9573 108.081 34.584C107.43 34.2107 106.918 33.6827 106.545 33C106.172 32.3067 105.985 31.5067 105.985 30.6C105.985 29.6933 106.166 28.8987 106.529 28.216C106.892 27.5333 107.398 27.0107 108.049 26.648C108.71 26.2747 109.468 26.088 110.321 26.088C111.153 26.088 111.889 26.2693 112.529 26.632C113.169 26.9947 113.66 27.496 114.001 28.136C114.353 28.7653 114.529 29.48 114.529 30.28ZM113.025 29.976C113.025 29.4213 112.902 28.9467 112.657 28.552C112.412 28.1467 112.076 27.8427 111.649 27.64C111.233 27.4267 110.769 27.32 110.257 27.32C109.521 27.32 108.892 27.5547 108.369 28.024C107.857 28.4933 107.564 29.144 107.489 29.976H113.025ZM115.907 30.584C115.907 29.688 116.088 28.904 116.451 28.232C116.813 27.5493 117.309 27.0213 117.939 26.648C118.579 26.2747 119.293 26.088 120.083 26.088C120.765 26.088 121.4 26.248 121.987 26.568C122.573 26.8773 123.021 27.288 123.331 27.8V23.16H124.803V35H123.331V33.352C123.043 33.8747 122.616 34.3067 122.051 34.648C121.485 34.9787 120.824 35.144 120.067 35.144C119.288 35.144 118.579 34.952 117.939 34.568C117.309 34.184 116.813 33.6453 116.451 32.952C116.088 32.2587 115.907 31.4693 115.907 30.584ZM123.331 30.6C123.331 29.9387 123.197 29.3627 122.931 28.872C122.664 28.3813 122.301 28.008 121.843 27.752C121.395 27.4853 120.899 27.352 120.355 27.352C119.811 27.352 119.315 27.48 118.867 27.736C118.419 27.992 118.061 28.3653 117.795 28.856C117.528 29.3467 117.395 29.9227 117.395 30.584C117.395 31.256 117.528 31.8427 117.795 32.344C118.061 32.8347 118.419 33.2133 118.867 33.48C119.315 33.736 119.811 33.864 120.355 33.864C120.899 33.864 121.395 33.736 121.843 33.48C122.301 33.2133 122.664 32.8347 122.931 32.344C123.197 31.8427 123.331 31.2613 123.331 30.6Z" fill="white"/>
</svg>
