<svg width="163" height="58" viewBox="0 0 163 58" fill="none" xmlns="http://www.w3.org/2000/svg">
<rect width="163" height="58" rx="4" fill="#7EA29A"/>
<path d="M61.824 23.848V35H60.368V29.944H54.688V35H53.232V23.848H54.688V28.744H60.368V23.848H61.824ZM65.0621 24.808C64.7848 24.808 64.5501 24.712 64.3581 24.52C64.1661 24.328 64.0701 24.0933 64.0701 23.816C64.0701 23.5387 64.1661 23.304 64.3581 23.112C64.5501 22.92 64.7848 22.824 65.0621 22.824C65.3288 22.824 65.5528 22.92 65.7341 23.112C65.9261 23.304 66.0221 23.5387 66.0221 23.816C66.0221 24.0933 65.9261 24.328 65.7341 24.52C65.5528 24.712 65.3288 24.808 65.0621 24.808ZM65.7661 26.232V35H64.3101V26.232H65.7661ZM69.7036 27.656C69.9596 27.1547 70.3223 26.7653 70.7916 26.488C71.2716 26.2107 71.853 26.072 72.5356 26.072V27.576H72.1516C70.5196 27.576 69.7036 28.4613 69.7036 30.232V35H68.2476V26.232H69.7036V27.656ZM82.2164 30.28C82.2164 30.5573 82.2004 30.8507 82.1684 31.16H75.1604C75.2137 32.024 75.507 32.7013 76.0404 33.192C76.5844 33.672 77.2404 33.912 78.0084 33.912C78.6377 33.912 79.1604 33.768 79.5764 33.48C80.003 33.1813 80.3017 32.7867 80.4724 32.296H82.0404C81.8057 33.1387 81.3364 33.8267 80.6324 34.36C79.9284 34.8827 79.0537 35.144 78.0084 35.144C77.1764 35.144 76.4297 34.9573 75.7684 34.584C75.1177 34.2107 74.6057 33.6827 74.2324 33C73.859 32.3067 73.6724 31.5067 73.6724 30.6C73.6724 29.6933 73.8537 28.8987 74.2164 28.216C74.579 27.5333 75.0857 27.0107 75.7364 26.648C76.3977 26.2747 77.155 26.088 78.0084 26.088C78.8404 26.088 79.5764 26.2693 80.2164 26.632C80.8564 26.9947 81.347 27.496 81.6884 28.136C82.0404 28.7653 82.2164 29.48 82.2164 30.28ZM80.7124 29.976C80.7124 29.4213 80.5897 28.9467 80.3444 28.552C80.099 28.1467 79.763 27.8427 79.3364 27.64C78.9204 27.4267 78.4564 27.32 77.9444 27.32C77.2084 27.32 76.579 27.5547 76.0564 28.024C75.5444 28.4933 75.251 29.144 75.1764 29.976H80.7124ZM99.7159 23.928V35H98.2599V26.744L94.5799 35H93.5559L89.8599 26.728V35H88.4039V23.928H89.9719L94.0679 33.08L98.1639 23.928H99.7159ZM110.185 30.28C110.185 30.5573 110.169 30.8507 110.137 31.16H103.129C103.182 32.024 103.476 32.7013 104.009 33.192C104.553 33.672 105.209 33.912 105.977 33.912C106.606 33.912 107.129 33.768 107.545 33.48C107.972 33.1813 108.27 32.7867 108.441 32.296H110.009C109.774 33.1387 109.305 33.8267 108.601 34.36C107.897 34.8827 107.022 35.144 105.977 35.144C105.145 35.144 104.398 34.9573 103.737 34.584C103.086 34.2107 102.574 33.6827 102.201 33C101.828 32.3067 101.641 31.5067 101.641 30.6C101.641 29.6933 101.822 28.8987 102.185 28.216C102.548 27.5333 103.054 27.0107 103.705 26.648C104.366 26.2747 105.124 26.088 105.977 26.088C106.809 26.088 107.545 26.2693 108.185 26.632C108.825 26.9947 109.316 27.496 109.657 28.136C110.009 28.7653 110.185 29.48 110.185 30.28ZM108.681 29.976C108.681 29.4213 108.558 28.9467 108.313 28.552C108.068 28.1467 107.732 27.8427 107.305 27.64C106.889 27.4267 106.425 27.32 105.913 27.32C105.177 27.32 104.548 27.5547 104.025 28.024C103.513 28.4933 103.22 29.144 103.145 29.976H108.681Z" fill="white"/>
</svg>
