<svg width="210" height="58" viewBox="0 0 210 58" fill="none" xmlns="http://www.w3.org/2000/svg">
<rect width="210" height="58" rx="4" fill="url(#paint0_linear)"/>
<path d="M93.448 23.848L89.24 35H87.56L83.352 23.848H84.904L88.408 33.464L91.912 23.848H93.448ZM95.7965 24.808C95.5192 24.808 95.2845 24.712 95.0925 24.52C94.9005 24.328 94.8045 24.0933 94.8045 23.816C94.8045 23.5387 94.9005 23.304 95.0925 23.112C95.2845 22.92 95.5192 22.824 95.7965 22.824C96.0632 22.824 96.2872 22.92 96.4685 23.112C96.6605 23.304 96.7565 23.5387 96.7565 23.816C96.7565 24.0933 96.6605 24.328 96.4685 24.52C96.2872 24.712 96.0632 24.808 95.7965 24.808ZM96.5005 26.232V35H95.0445V26.232H96.5005ZM106.982 30.28C106.982 30.5573 106.966 30.8507 106.934 31.16H99.926C99.9793 32.024 100.273 32.7013 100.806 33.192C101.35 33.672 102.006 33.912 102.774 33.912C103.403 33.912 103.926 33.768 104.342 33.48C104.769 33.1813 105.067 32.7867 105.238 32.296H106.806C106.571 33.1387 106.102 33.8267 105.398 34.36C104.694 34.8827 103.819 35.144 102.774 35.144C101.942 35.144 101.195 34.9573 100.534 34.584C99.8833 34.2107 99.3713 33.6827 98.998 33C98.6247 32.3067 98.438 31.5067 98.438 30.6C98.438 29.6933 98.6193 28.8987 98.982 28.216C99.3447 27.5333 99.8513 27.0107 100.502 26.648C101.163 26.2747 101.921 26.088 102.774 26.088C103.606 26.088 104.342 26.2693 104.982 26.632C105.622 26.9947 106.113 27.496 106.454 28.136C106.806 28.7653 106.982 29.48 106.982 30.28ZM105.478 29.976C105.478 29.4213 105.355 28.9467 105.11 28.552C104.865 28.1467 104.529 27.8427 104.102 27.64C103.686 27.4267 103.222 27.32 102.71 27.32C101.974 27.32 101.345 27.5547 100.822 28.024C100.31 28.4933 100.017 29.144 99.942 29.976H105.478ZM120.584 26.232L117.848 35H116.344L114.232 28.04L112.12 35H110.616L107.864 26.232H109.352L111.368 33.592L113.544 26.232H115.032L117.16 33.608L119.144 26.232H120.584Z" fill="white"/>
<defs>
<linearGradient id="paint0_linear" x1="0" y1="29" x2="210" y2="29" gradientUnits="userSpaceOnUse">
<stop offset="0.00318791" stop-color="#4E9D92"/>
<stop offset="1" stop-color="#0B6458"/>
</linearGradient>
</defs>
</svg>
