<svg width="99" height="89" viewBox="0 0 99 89" fill="none" xmlns="http://www.w3.org/2000/svg">
<path d="M0 4C0 1.79086 1.79086 0 4 0H95C97.2091 0 99 1.79086 99 4V85C99 87.2091 97.2091 89 95 89H4C1.79086 89 0 87.2091 0 85V4Z" fill="#95C9D1" fill-opacity="0.1"/>
<path d="M59.5714 46.1841H64.972C69.205 45.3055 72.5621 42.2301 72.5621 36.9582C72.5621 30.8075 67.8913 27 62.1988 27C55.1926 27 51.1056 32.7113 51.1056 40.4728C51.1056 52.3347 58.8416 60.8285 73 62V58.046C64.972 56.728 60.1553 52.6276 59.5714 46.1841ZM34.3199 46.1841H39.7205C43.9534 45.3055 47.3105 42.2301 47.3105 36.9582C47.3105 30.8075 42.7857 27 37.0932 27C30.087 27 26 32.7113 26 40.4728C26 52.3347 33.5901 60.8285 47.8944 62V58.046C39.7205 56.728 35.0497 52.6276 34.3199 46.1841Z" fill="url(#paint0_linear)"/>
<defs>
<linearGradient id="paint0_linear" x1="20.1772" y1="32.3908" x2="71.9618" y2="63.2961" gradientUnits="userSpaceOnUse">
<stop stop-color="#4E9D92"/>
<stop offset="1" stop-color="#0B6458"/>
</linearGradient>
</defs>
</svg>
