<svg width="99" height="89" viewBox="0 0 99 89" fill="none" xmlns="http://www.w3.org/2000/svg">
<g clip-path="url(#clip0)">
<path d="M0 4C0 1.79086 1.79086 0 4 0H95C97.2091 0 99 1.79086 99 4V85C99 87.2091 97.2091 89 95 89H4C1.79086 89 0 87.2091 0 85V4Z" fill="#95C9D1" fill-opacity="0.1"/>
<g opacity="0.2">
<g opacity="0.2" filter="url(#filter0_d)">
<path d="M49.2151 73.4301C64.7978 73.4301 77.4301 60.7978 77.4301 45.2151C77.4301 29.6323 64.7978 17 49.2151 17C33.6323 17 21 29.6323 21 45.2151C21 60.7978 33.6323 73.4301 49.2151 73.4301Z" fill="black"/>
</g>
<path opacity="0.2" d="M49.2151 73.4301C64.7978 73.4301 77.4301 60.7978 77.4301 45.2151C77.4301 29.6323 64.7978 17 49.2151 17C33.6323 17 21 29.6323 21 45.2151C21 60.7978 33.6323 73.4301 49.2151 73.4301Z" fill="url(#paint0_linear)"/>
</g>
<path d="M60.914 34.8925H38.2043C37.8242 34.8925 37.5161 35.2006 37.5161 35.5807V36.957C37.5161 37.3371 37.8242 37.6452 38.2043 37.6452H60.914C61.294 37.6452 61.6021 37.3371 61.6021 36.957V35.5807C61.6021 35.2006 61.294 34.8925 60.914 34.8925Z" fill="url(#paint1_linear)"/>
<path d="M60.914 43.8387H38.2043C37.8242 43.8387 37.5161 44.1468 37.5161 44.5269V45.9032C37.5161 46.2833 37.8242 46.5914 38.2043 46.5914H60.914C61.294 46.5914 61.6021 46.2833 61.6021 45.9032V44.5269C61.6021 44.1468 61.294 43.8387 60.914 43.8387Z" fill="url(#paint2_linear)"/>
<path d="M51.9677 52.7849H38.2043C37.8242 52.7849 37.5161 53.093 37.5161 53.4731V54.8495C37.5161 55.2295 37.8242 55.5376 38.2043 55.5376H51.9677C52.3478 55.5376 52.6559 55.2295 52.6559 54.8495V53.4731C52.6559 53.093 52.3478 52.7849 51.9677 52.7849Z" fill="url(#paint3_linear)"/>
</g>
<defs>
<filter id="filter0_d" x="-33" y="-16" width="164.43" height="164.43" filterUnits="userSpaceOnUse" color-interpolation-filters="sRGB">
<feFlood flood-opacity="0" result="BackgroundImageFix"/>
<feColorMatrix in="SourceAlpha" type="matrix" values="0 0 0 0 0 0 0 0 0 0 0 0 0 0 0 0 0 0 127 0"/>
<feOffset dy="21"/>
<feGaussianBlur stdDeviation="27"/>
<feColorMatrix type="matrix" values="0 0 0 0 0.583063 0 0 0 0 0.784584 0 0 0 0 0.909335 0 0 0 1 0"/>
<feBlend mode="normal" in2="BackgroundImageFix" result="effect1_dropShadow"/>
<feBlend mode="normal" in="SourceGraphic" in2="effect1_dropShadow" result="shape"/>
</filter>
<linearGradient id="paint0_linear" x1="21" y1="3.01788" x2="77.4301" y2="73.4301" gradientUnits="userSpaceOnUse">
<stop stop-color="#BCDCF0"/>
<stop offset="1" stop-color="#86BCDD"/>
</linearGradient>
<linearGradient id="paint1_linear" x1="37.5161" y1="36.2419" x2="61.1284" y2="39.6091" gradientUnits="userSpaceOnUse">
<stop stop-color="#BCDCF0"/>
<stop offset="1" stop-color="#86BCDD"/>
</linearGradient>
<linearGradient id="paint2_linear" x1="37.5161" y1="45.1882" x2="61.1284" y2="48.5554" gradientUnits="userSpaceOnUse">
<stop stop-color="#BCDCF0"/>
<stop offset="1" stop-color="#86BCDD"/>
</linearGradient>
<linearGradient id="paint3_linear" x1="37.5161" y1="54.0932" x2="51.9393" y2="57.3654" gradientUnits="userSpaceOnUse">
<stop stop-color="#BCDCF0"/>
<stop offset="1" stop-color="#86BCDD"/>
</linearGradient>
<clipPath id="clip0">
<path d="M0 4C0 1.79086 1.79086 0 4 0H95C97.2091 0 99 1.79086 99 4V85C99 87.2091 97.2091 89 95 89H4C1.79086 89 0 87.2091 0 85V4Z" fill="white"/>
</clipPath>
</defs>
</svg>
