<svg width="99" height="89" viewBox="0 0 99 89" fill="none" xmlns="http://www.w3.org/2000/svg">
<path d="M0 4C0 1.79086 1.79086 0 4 0H95C97.2091 0 99 1.79086 99 4V85C99 87.2091 97.2091 89 95 89H4C1.79086 89 0 87.2091 0 85V4Z" fill="#95C9D1" fill-opacity="0.1"/>
<path d="M49.5 71C64.1355 71 76 59.1355 76 44.5C76 29.8645 64.1355 18 49.5 18C34.8645 18 23 29.8645 23 44.5C23 59.1355 34.8645 71 49.5 71Z" fill="url(#paint0_linear)"/>
<path fill-rule="evenodd" clip-rule="evenodd" d="M57.2772 46.8043C59.568 46.8043 61.425 48.6614 61.425 50.9522V54.04C61.425 54.6254 60.9504 55.1 60.365 55.1H37.31C36.7246 55.1 36.25 54.6254 36.25 54.04V50.9522C36.25 48.6614 38.107 46.8043 40.3978 46.8043H57.2772ZM48.8375 31.25C52.3134 31.25 55.1313 34.0356 55.1313 37.4717C55.1313 40.9079 52.3134 43.6935 48.8375 43.6935C45.3616 43.6935 42.5438 40.9079 42.5438 37.4717C42.5438 34.0356 45.3616 31.25 48.8375 31.25Z" fill="url(#paint1_linear)"/>
<defs>
<linearGradient id="paint0_linear" x1="49.5" y1="18" x2="49.5" y2="71" gradientUnits="userSpaceOnUse">
<stop stop-color="#A2BFD8" stop-opacity="0.134397"/>
<stop offset="1" stop-color="#698BAF" stop-opacity="0.134397"/>
</linearGradient>
<linearGradient id="paint1_linear" x1="36.25" y1="32.4722" x2="53.7237" y2="54.8059" gradientUnits="userSpaceOnUse">
<stop stop-color="#809BBB"/>
<stop offset="1" stop-color="#496286"/>
</linearGradient>
</defs>
</svg>
