<svg width="99" height="89" viewBox="0 0 99 89" fill="none" xmlns="http://www.w3.org/2000/svg">
<path d="M0 4C0 1.79086 1.79086 0 4 0H95C97.2091 0 99 1.79086 99 4V85C99 87.2091 97.2091 89 95 89H4C1.79086 89 0 87.2091 0 85V4Z" fill="#95C9D1" fill-opacity="0.1"/>
<path d="M49.5 60.5V38.5" stroke="black" stroke-linecap="round" stroke-linejoin="round"/>
<path d="M39.5 48.5L49.5 38.5L59.5 48.5" stroke="black" stroke-linecap="round" stroke-linejoin="round"/>
<path d="M57.5 64.5H69.5C75.1 64 79.5 59.2 79.5 53.5C79.5 47.7 75.1 43 69.4 42.5C68.4 32.4 59.9 24.5 49.5 24.5C40.5 24.5 32.9 30.5 30.4 38.7C24.2 39.7 19.5 45 19.5 51.5C19.5 58.3 24.8 64 31.5 64.5H41.5" stroke="black" stroke-linecap="round" stroke-linejoin="round"/>
</svg>
