<svg width="47" height="42" viewBox="0 0 47 42" fill="none" xmlns="http://www.w3.org/2000/svg">
<path d="M0 4C0 1.79086 1.79086 0 4 0H43C45.2091 0 47 1.79086 47 4V38C47 40.2091 45.2091 42 43 42H4C1.79086 42 0 40.2091 0 38V4Z" fill="#95C9D1" fill-opacity="0.1"/>
<path d="M23.9955 20.0055C25.3695 21.3795 25.3695 23.6065 23.9955 24.9805L22.0055 26.9705C20.6315 28.3445 18.4045 28.3445 17.0305 26.9705C15.6565 25.5965 15.6565 23.3695 17.0305 21.9955L18.7785 20.2975" stroke="black" stroke-linecap="round" stroke-linejoin="round"/>
<path d="M22.0055 21.9955C20.6315 20.6215 20.6315 18.3945 22.0055 17.0205L23.9955 15.0305C25.3695 13.6565 27.5965 13.6565 28.9705 15.0305C30.3445 16.4045 30.3445 18.6315 28.9705 20.0055L27.2225 21.7035" stroke="black" stroke-linecap="round" stroke-linejoin="round"/>
</svg>
