<svg width="47" height="42" viewBox="0 0 47 42" fill="none" xmlns="http://www.w3.org/2000/svg">
<path d="M0 4C0 1.79086 1.79086 0 4 0H43C45.2091 0 47 1.79086 47 4V38C47 40.2091 45.2091 42 43 42H4C1.79086 42 0 40.2091 0 38V4Z" fill="#95C9D1" fill-opacity="0.1"/>
<path d="M17.555 16.0523C15.989 17.5033 15 19.5613 15 21.8673C15 26.2853 18.581 29.8663 22.999 29.8663C27.417 29.8663 30.999 26.2853 30.999 21.8673C30.999 19.5613 30.01 17.5033 28.444 16.0523" stroke="#231F20" stroke-linecap="round" stroke-linejoin="round"/>
<path d="M22.9993 12V20.104" stroke="#231F20" stroke-linecap="round" stroke-linejoin="round"/>
</svg>
