<svg width="47" height="42" viewBox="0 0 47 42" fill="none" xmlns="http://www.w3.org/2000/svg">
<path d="M0 4C0 1.79086 1.79086 0 4 0H43C45.2091 0 47 1.79086 47 4V38C47 40.2091 45.2091 42 43 42H4C1.79086 42 0 40.2091 0 38V4Z" fill="#95C9D1" fill-opacity="0.1"/>
<path d="M29.6823 15.3178C27.9252 13.5607 25.0751 13.5607 23.318 15.3178C23.197 15.4388 23.104 15.5768 23 15.7068C22.896 15.5768 22.803 15.4388 22.682 15.3178C20.925 13.5607 18.0748 13.5607 16.3178 15.3178C14.5607 17.0748 14.5607 19.9249 16.3178 21.6819L22.1756 27.2205C22.6382 27.6579 23.3619 27.6579 23.8245 27.2205L29.6823 21.6819C31.4393 19.9249 31.4393 17.0748 29.6823 15.3178Z" stroke="black" stroke-width="0.8"/>
</svg>
