<svg width="60" height="54" viewBox="0 0 60 54" fill="none" xmlns="http://www.w3.org/2000/svg">
<path d="M0 4C0 1.79086 1.79086 0 4 0H56C58.2091 0 60 1.79086 60 4V50C60 52.2091 58.2091 54 56 54H4C1.79086 54 0 52.2091 0 50V4Z" fill="#95C9D1" fill-opacity="0.1"/>
<g clip-path="url(#clip0)">
<path d="M41.607 22.6064L34.5934 21.5376L31.4627 14.8813C31.1599 14.3357 30.603 14 30.0005 14C29.3981 14 28.8411 14.3357 28.5384 14.8813L25.4076 21.5393L18.3941 22.6064C17.7814 22.6985 17.2718 23.1473 17.08 23.7638C16.8882 24.3803 17.0475 25.0573 17.4908 25.5099L22.5645 30.6923L21.3672 38.0107C21.2628 38.6491 21.5134 39.2943 22.0137 39.675C22.514 40.0558 23.1772 40.1059 23.7245 39.8045L30.0005 36.3478L36.2734 39.8011C36.8207 40.1025 37.4839 40.0523 37.9842 39.6716C38.4845 39.2909 38.7351 38.6457 38.6307 38.0072L37.4333 30.6889L42.5103 25.5099C42.9524 25.0577 43.1114 24.3819 42.9205 23.7662C42.7295 23.1506 42.2217 22.7017 41.6103 22.6081L41.607 22.6064Z" fill="url(#paint0_linear)"/>
</g>
<defs>
<linearGradient id="paint0_linear" x1="17" y1="14" x2="36.2715" y2="40" gradientUnits="userSpaceOnUse">
<stop stop-color="#809BBB"/>
<stop offset="1" stop-color="#496286"/>
</linearGradient>
<clipPath id="clip0">
<rect width="26" height="26" fill="white" transform="translate(17 14)"/>
</clipPath>
</defs>
</svg>
