<svg width="47" height="42" viewBox="0 0 47 42" fill="none" xmlns="http://www.w3.org/2000/svg">
<path d="M0 4C0 1.79086 1.79086 0 4 0H43C45.2091 0 47 1.79086 47 4V38C47 40.2091 45.2091 42 43 42H4C1.79086 42 0 40.2091 0 38V4Z" fill="#95C9D1" fill-opacity="0.1"/>
<path fill-rule="evenodd" clip-rule="evenodd" d="M29.4961 28.183H17.6871C16.7551 28.183 16.0001 27.428 16.0001 26.496V22.419C16.0001 21.761 16.0651 21.104 16.1941 20.459L17.4181 14.337C17.5741 13.559 18.2561 13 19.0491 13H28.1341C28.9271 13 29.6091 13.559 29.7651 14.337L30.9891 20.459C31.1181 21.104 31.1831 21.761 31.1831 22.419V26.496C31.1831 27.428 30.4281 28.183 29.4961 28.183Z" stroke="black"/>
<path d="M16 21.8133H18.61C19.262 21.8133 19.858 22.2763 20.157 23.0133L20.429 23.6863C20.728 24.4223 21.324 24.8853 21.976 24.8853H25.208C25.859 24.8853 26.456 24.4223 26.754 23.6863L27.027 23.0133C27.325 22.2763 27.922 21.8133 28.573 21.8133H31.183" stroke="black"/>
</svg>
