<svg width="47" height="42" viewBox="0 0 47 42" fill="none" xmlns="http://www.w3.org/2000/svg">
<path d="M0 4C0 1.79086 1.79086 0 4 0H43C45.2091 0 47 1.79086 47 4V38C47 40.2091 45.2091 42 43 42H4C1.79086 42 0 40.2091 0 38V4Z" fill="#95C9D1" fill-opacity="0.1"/>
<path d="M31.0477 19.673C31.1457 20.164 31.2927 20.9 31.4887 21.881C31.6177 22.527 31.6827 23.184 31.6827 23.841V27.918C31.6827 28.851 30.9277 29.606 29.9957 29.606H18.1877C17.2547 29.606 16.4997 28.851 16.4997 27.918V23.841C16.4997 23.184 16.5657 22.527 16.6937 21.881L17.9177 15.759C18.0737 14.982 18.7557 14.422 19.5487 14.422H23.1167" stroke="#010202" stroke-linecap="round" stroke-linejoin="round"/>
<path d="M16.4999 23.2355H19.1099C19.7619 23.2355 20.3579 23.6985 20.6569 24.4355L20.9289 25.1085C21.2279 25.8445 21.8239 26.3075 22.4759 26.3075H25.7079C26.3589 26.3075 26.9559 25.8445 27.2539 25.1085L27.5269 24.4355C27.8249 23.6985 28.4219 23.2355 29.0729 23.2355H31.6829" stroke="#010202"/>
<path d="M26.0673 14.4221H31.9133" stroke="#010202" stroke-linecap="round" stroke-linejoin="round"/>
<path d="M28.9901 11.5002V17.3452" stroke="#010202" stroke-linecap="round" stroke-linejoin="round"/>
</svg>
