<svg width="47" height="42" viewBox="0 0 47 42" fill="none" xmlns="http://www.w3.org/2000/svg">
<path d="M0 4C0 1.79086 1.79086 0 4 0H43C45.2091 0 47 1.79086 47 4V38C47 40.2091 45.2091 42 43 42H4C1.79086 42 0 40.2091 0 38V4Z" fill="#95C9D1" fill-opacity="0.1"/>
<path d="M22.5279 28.6876L20.1829 24.3526V15.9846" stroke="black" stroke-linecap="round"/>
<path fill-rule="evenodd" clip-rule="evenodd" d="M27.377 14.398L25.228 15.587C24.756 15.848 24.226 15.985 23.687 15.985H17.105C16.495 15.985 16 16.48 16 17.091V23.247C16 23.857 16.495 24.353 17.105 24.353H23.687C24.226 24.353 24.756 24.49 25.228 24.751L27.377 25.94C27.849 26.201 28.379 26.337 28.919 26.337H30.866C31.32 26.337 31.688 25.97 31.688 25.516V14.821C31.688 14.368 31.32 14 30.866 14H28.919C28.379 14 27.849 14.137 27.377 14.398Z" stroke="black" stroke-linecap="round"/>
</svg>
