<svg width="210" height="58" viewBox="0 0 210 58" fill="none" xmlns="http://www.w3.org/2000/svg">
<rect width="210" height="58" rx="4" fill="black"/>
<path d="M94.448 23.848L90.24 35H88.56L84.352 23.848H85.904L89.408 33.464L92.912 23.848H94.448ZM96.7965 24.808C96.5192 24.808 96.2845 24.712 96.0925 24.52C95.9005 24.328 95.8045 24.0933 95.8045 23.816C95.8045 23.5387 95.9005 23.304 96.0925 23.112C96.2845 22.92 96.5192 22.824 96.7965 22.824C97.0632 22.824 97.2872 22.92 97.4685 23.112C97.6605 23.304 97.7565 23.5387 97.7565 23.816C97.7565 24.0933 97.6605 24.328 97.4685 24.52C97.2872 24.712 97.0632 24.808 96.7965 24.808ZM97.5005 26.232V35H96.0445V26.232H97.5005ZM107.982 30.28C107.982 30.5573 107.966 30.8507 107.934 31.16H100.926C100.979 32.024 101.273 32.7013 101.806 33.192C102.35 33.672 103.006 33.912 103.774 33.912C104.403 33.912 104.926 33.768 105.342 33.48C105.769 33.1813 106.067 32.7867 106.238 32.296H107.806C107.571 33.1387 107.102 33.8267 106.398 34.36C105.694 34.8827 104.819 35.144 103.774 35.144C102.942 35.144 102.195 34.9573 101.534 34.584C100.883 34.2107 100.371 33.6827 99.998 33C99.6247 32.3067 99.438 31.5067 99.438 30.6C99.438 29.6933 99.6193 28.8987 99.982 28.216C100.345 27.5333 100.851 27.0107 101.502 26.648C102.163 26.2747 102.921 26.088 103.774 26.088C104.606 26.088 105.342 26.2693 105.982 26.632C106.622 26.9947 107.113 27.496 107.454 28.136C107.806 28.7653 107.982 29.48 107.982 30.28ZM106.478 29.976C106.478 29.4213 106.355 28.9467 106.11 28.552C105.865 28.1467 105.529 27.8427 105.102 27.64C104.686 27.4267 104.222 27.32 103.71 27.32C102.974 27.32 102.345 27.5547 101.822 28.024C101.31 28.4933 101.017 29.144 100.942 29.976H106.478ZM121.584 26.232L118.848 35H117.344L115.232 28.04L113.12 35H111.616L108.864 26.232H110.352L112.368 33.592L114.544 26.232H116.032L118.16 33.608L120.144 26.232H121.584Z" fill="white"/>
</svg>
