<svg width="47" height="42" viewBox="0 0 47 42" fill="none" xmlns="http://www.w3.org/2000/svg">
<path d="M0 4C0 1.79086 1.79086 0 4 0H43C45.2091 0 47 1.79086 47 4V38C47 40.2091 45.2091 42 43 42H4C1.79086 42 0 40.2091 0 38V4Z" fill="#95C9D1" fill-opacity="0.1"/>
<g clip-path="url(#clip0)">
<path d="M28.026 25.8588C30.7597 23.1251 30.7201 18.6534 27.9376 15.8709C25.1551 13.0884 20.6834 13.0488 17.9497 15.7825C15.2161 18.5162 15.2557 22.9879 18.0381 25.7704C20.8206 28.5529 25.2923 28.5925 28.026 25.8588Z" stroke="black"/>
<path d="M28.026 25.8588L31.1325 28.9652" stroke="black"/>
</g>
<defs>
<clipPath id="clip0">
<rect width="17" height="16" fill="white" transform="translate(15 13)"/>
</clipPath>
</defs>
</svg>
