<svg width="60" height="54" viewBox="0 0 60 54" fill="none" xmlns="http://www.w3.org/2000/svg">
<path d="M0 4C0 1.79086 1.79086 0 4 0H56C58.2091 0 60 1.79086 60 4V50C60 52.2091 58.2091 54 56 54H4C1.79086 54 0 52.2091 0 50V4Z" fill="#95C9D1" fill-opacity="0.1"/>
<path d="M29.65 43.3C38.8455 43.3 46.3 35.8455 46.3 26.65C46.3 17.4545 38.8455 10 29.65 10C20.4545 10 13 17.4545 13 26.65C13 35.8455 20.4545 43.3 29.65 43.3Z" stroke="#EAEAEA"/>
<path d="M29.65 35.9C34.7586 35.9 38.9 31.7586 38.9 26.65C38.9 21.5414 34.7586 17.4 29.65 17.4C24.5414 17.4 20.4 21.5414 20.4 26.65C20.4 31.7586 24.5414 35.9 29.65 35.9Z" fill="url(#paint0_linear)"/>
<defs>
<linearGradient id="paint0_linear" x1="20.4" y1="12.8161" x2="38.9" y2="35.9" gradientUnits="userSpaceOnUse">
<stop stop-color="#4E9D92"/>
<stop offset="1" stop-color="#0B6458"/>
</linearGradient>
</defs>
</svg>
