<svg width="47" height="42" viewBox="0 0 47 42" fill="none" xmlns="http://www.w3.org/2000/svg">
<path d="M0 4C0 1.79086 1.79086 0 4 0H43C45.2091 0 47 1.79086 47 4V38C47 40.2091 45.2091 42 43 42H4C1.79086 42 0 40.2091 0 38V4Z" fill="#95C9D1" fill-opacity="0.1"/>
<path d="M33.7141 16.9444L27.24 15.9578L24.3502 9.81359C24.0707 9.30993 23.5566 9 23.0005 9C22.4444 9 21.9302 9.30993 21.6507 9.81359L18.7609 15.9594L12.2868 16.9444C11.7212 17.0293 11.2509 17.4436 11.0739 18.0127C10.8968 18.5817 11.0438 19.2068 11.453 19.6245L16.1365 24.4083L15.0312 31.1637C14.9348 31.7531 15.1661 32.3486 15.628 32.7001C16.0898 33.0515 16.702 33.0978 17.2072 32.8195L23.0005 29.6288L28.7907 32.8164C29.2959 33.0947 29.9082 33.0483 30.37 32.6969C30.8318 32.3455 31.0631 31.7499 30.9667 31.1605L29.8615 24.4052L34.548 19.6245C34.9561 19.2071 35.1028 18.5833 34.9266 18.015C34.7503 17.4467 34.2816 17.0324 33.7171 16.946L33.7141 16.9444Z" fill="url(#paint0_linear)"/>
<defs>
<linearGradient id="paint0_linear" x1="11" y1="9" x2="28.7891" y2="33" gradientUnits="userSpaceOnUse">
<stop stop-color="#809BBB"/>
<stop offset="1" stop-color="#496286"/>
</linearGradient>
</defs>
</svg>
