<svg width="47" height="42" viewBox="0 0 47 42" fill="none" xmlns="http://www.w3.org/2000/svg">
<path d="M0 4C0 1.79086 1.79086 0 4 0H43C45.2091 0 47 1.79086 47 4V38C47 40.2091 45.2091 42 43 42H4C1.79086 42 0 40.2091 0 38V4Z" fill="#95C9D1" fill-opacity="0.1"/>
<path d="M32.8212 17.2823L26.8867 16.378L24.2377 10.7457C23.9815 10.2841 23.5103 10 23.0005 10C22.4908 10 22.0193 10.2841 21.7632 10.7457L19.1142 16.3793L13.1797 17.2823C12.6612 17.3602 12.23 17.7399 12.0677 18.2616C11.9054 18.7832 12.0402 19.3562 12.4153 19.7391L16.7085 24.1243L15.6954 30.3166C15.607 30.8569 15.819 31.4029 16.2424 31.725C16.6657 32.0472 17.2269 32.0895 17.69 31.8344L23.0005 28.9097L28.3082 31.8316C28.7713 32.0867 29.3325 32.0443 29.7558 31.7222C30.1792 31.4 30.3912 30.854 30.3028 30.3138L29.2897 24.1214L33.5856 19.7391C33.9597 19.3565 34.0943 18.7847 33.9327 18.2637C33.7711 17.7428 33.3414 17.3631 32.8241 17.2839L32.8212 17.2823Z" fill="url(#paint0_linear)"/>
<defs>
<linearGradient id="paint0_linear" x1="12" y1="4.54891" x2="33.9999" y2="32" gradientUnits="userSpaceOnUse">
<stop stop-color="#4E9D92"/>
<stop offset="1" stop-color="#0B6458"/>
</linearGradient>
</defs>
</svg>
