<svg width="47" height="42" viewBox="0 0 47 42" fill="none" xmlns="http://www.w3.org/2000/svg">
<rect width="47" height="42" rx="4" fill="#F5FAFB"/>
<g clip-path="url(#clip0)">
<path fill-rule="evenodd" clip-rule="evenodd" d="M21.5016 24.2855L18.5209 21.4252L19.5187 20.4678L21.5016 22.3704L25.8547 18.1934L26.8525 19.1508L21.5016 24.2855ZM31.4358 22.1571C30.6871 21.5532 30.6871 20.4471 31.4358 19.8428C32.5197 18.9694 31.9456 17.2743 30.5339 17.1785C29.5577 17.1121 28.8802 16.2173 29.1162 15.3063C29.4574 13.988 27.9548 12.9406 26.7538 13.6593C25.9236 14.1563 24.8274 13.8143 24.4601 12.9443C23.9287 11.6852 22.0714 11.6852 21.54 12.9443C21.1728 13.8143 20.0765 14.1563 19.2463 13.6593C18.0457 12.9406 16.5426 13.988 16.8842 15.3063C17.1202 16.2173 16.4425 17.1121 15.4666 17.1785C14.0545 17.2743 13.4805 18.9694 14.564 19.8428C15.313 20.4471 15.313 21.5532 14.564 22.1571C13.4805 23.0309 14.0545 24.726 15.4666 24.8218C16.4425 24.8881 17.1202 25.7829 16.8842 26.694C16.5426 28.0119 18.0457 29.0597 19.2463 28.341C20.0765 27.844 21.1728 28.1859 21.54 29.056C22.0714 30.3147 23.9287 30.3147 24.4601 29.056C24.8274 28.1859 25.9236 27.844 26.7538 28.341C27.9548 29.0597 29.4574 28.0119 29.1162 26.694C28.8802 25.7829 29.5577 24.8881 30.5339 24.8218C31.9456 24.726 32.5197 23.0309 31.4358 22.1571Z" fill="url(#paint0_linear)"/>
</g>
<defs>
<linearGradient id="paint0_linear" x1="14" y1="7.54" x2="32" y2="30.0001" gradientUnits="userSpaceOnUse">
<stop stop-color="#4E9D92"/>
<stop offset="1" stop-color="#0B6458"/>
</linearGradient>
<clipPath id="clip0">
<rect width="18" height="18" fill="white" transform="translate(14 12)"/>
</clipPath>
</defs>
</svg>
