<svg width="47" height="42" viewBox="0 0 47 42" fill="none" xmlns="http://www.w3.org/2000/svg">
<path d="M0 4C0 1.79086 1.79086 0 4 0H43C45.2091 0 47 1.79086 47 4V38C47 40.2091 45.2091 42 43 42H4C1.79086 42 0 40.2091 0 38V4Z" fill="#95C9D1" fill-opacity="0.1"/>
<path fill-rule="evenodd" clip-rule="evenodd" d="M33.622 21.128C33.622 21.128 28.781 14 22.81 14C16.84 14 12 21.128 12 21.128C12 21.128 16.84 28.256 22.81 28.256C28.781 28.256 33.622 21.128 33.622 21.128Z" fill="#FEFEFE"/>
<path fill-rule="evenodd" clip-rule="evenodd" d="M33.622 21.128C33.622 21.128 28.781 14 22.81 14C16.84 14 12 21.128 12 21.128C12 21.128 16.84 28.256 22.81 28.256C28.781 28.256 33.622 21.128 33.622 21.128Z" stroke="#231F20"/>
<path fill-rule="evenodd" clip-rule="evenodd" d="M26.4501 21.128C26.4501 19.118 24.8201 17.488 22.8101 17.488C20.8011 17.488 19.1721 19.118 19.1721 21.128C19.1721 23.138 20.8011 24.768 22.8101 24.768C24.8201 24.768 26.4501 23.138 26.4501 21.128Z" fill="#FEFEFE"/>
<path fill-rule="evenodd" clip-rule="evenodd" d="M26.4501 21.128C26.4501 19.118 24.8201 17.488 22.8101 17.488C20.8011 17.488 19.1721 19.118 19.1721 21.128C19.1721 23.138 20.8011 24.768 22.8101 24.768C24.8201 24.768 26.4501 23.138 26.4501 21.128Z" stroke="#231F20"/>
</svg>
